<svg width="228" height="46" viewBox="0 0 228 46" fill="none" xmlns="http://www.w3.org/2000/svg">
<path d="M60.7656 30.3281C60.1198 29.8385 59.9635 29.3438 60.2969 28.8438L61.5 27.0312C61.8958 26.4375 62.474 26.4062 63.2344 26.9375C63.8177 27.3438 64.5781 27.7656 65.5156 28.2031C66.4635 28.6302 67.4583 28.8438 68.5 28.8438C69.2292 28.8438 69.9323 28.7604 70.6094 28.5938C71.2865 28.4271 71.8021 28.1042 72.1562 27.625C72.5104 27.1458 72.6875 26.5781 72.6875 25.9219C72.6875 25.4531 72.6094 25.0417 72.4531 24.6875C72.2969 24.3333 72.0417 24.0417 71.6875 23.8125C71.3333 23.5833 70.9688 23.3906 70.5938 23.2344C69.9375 22.9635 69.1094 22.6979 68.1094 22.4375C67.1198 22.1667 66.1406 21.8438 65.1719 21.4688C64.3073 21.1354 63.5156 20.6771 62.7969 20.0938C62.0781 19.5104 61.5208 18.8542 61.125 18.125C60.7292 17.3958 60.5312 16.4219 60.5312 15.2031C60.5312 13.7552 61 12.5156 61.9375 11.4844C62.875 10.4531 63.9531 9.79167 65.1719 9.5C66.3906 9.20833 67.6198 9.0625 68.8594 9.0625C70.0885 9.0625 71.3542 9.25 72.6562 9.625C73.9688 10 74.9583 10.4688 75.625 11.0312C76.2812 11.5833 76.4427 12.0833 76.1094 12.5312L74.8438 14.2344C74.4167 14.8177 73.8438 14.8646 73.125 14.375C72.6667 14.0625 72.0365 13.7135 71.2344 13.3281C70.4427 12.9427 69.6146 12.75 68.75 12.75C68.1354 12.75 67.5677 12.8021 67.0469 12.9062C66.5365 13.0104 66.0833 13.2604 65.6875 13.6562C65.2917 14.0521 65.0938 14.5417 65.0938 15.125C65.0938 15.6875 65.2396 16.1458 65.5312 16.5C65.8229 16.8438 66.1458 17.1042 66.5 17.2812C66.8542 17.4479 67.2135 17.5885 67.5781 17.7031C68.7031 18.0677 69.7083 18.3906 70.5938 18.6719C71.4792 18.9427 72.2969 19.2448 73.0469 19.5781C74.0885 20.0469 74.8854 20.5156 75.4375 20.9844C75.9896 21.4531 76.4427 22.0938 76.7969 22.9062C77.1615 23.7188 77.3438 24.6875 77.3438 25.8125C77.3438 27.4792 76.8125 28.8594 75.75 29.9531C74.6875 31.0365 73.5052 31.7344 72.2031 32.0469C70.9115 32.3698 69.651 32.5312 68.4219 32.5312C66.6094 32.5312 65.1354 32.3542 64 32C62.8646 31.6562 61.7865 31.099 60.7656 30.3281ZM79.6875 23.7969C79.6875 21.5052 80.1823 19.5156 81.1719 17.8281C82.1719 16.1302 83.8958 15.2812 86.3438 15.2812C87.2812 15.2812 88.0833 15.4167 88.75 15.6875C89.4167 15.9583 90.0208 16.5417 90.5625 17.4375H90.625L90.6875 16.5312C90.7292 15.9062 91.0104 15.5938 91.5312 15.5938H94C94.625 15.5938 94.9375 15.9062 94.9375 16.5312V37.3125C94.9375 37.9375 94.625 38.25 94 38.25H91.5C90.875 38.25 90.5625 37.9375 90.5625 37.3125V31.4062C90.5625 30.9896 90.5833 30.5729 90.625 30.1562H90.5625C90.0208 31.0521 89.4167 31.6354 88.75 31.9062C88.0833 32.1771 87.2812 32.3125 86.3438 32.3125C83.8958 32.3125 82.1719 31.4688 81.1719 29.7812C80.1823 28.0833 79.6875 26.0885 79.6875 23.7969ZM84.3125 23.7969C84.3125 25.4635 84.526 26.7917 84.9531 27.7812C85.3906 28.7604 86.3125 29.25 87.7188 29.25C88.5 29.25 89.1667 28.8125 89.7188 27.9375C90.2812 27.0521 90.5625 25.9062 90.5625 24.5V23.0938C90.5625 21.6875 90.2812 20.5469 89.7188 19.6719C89.1667 18.7865 88.5 18.3438 87.7188 18.3438C86.3125 18.3438 85.3906 18.8385 84.9531 19.8281C84.526 20.8073 84.3125 22.1302 84.3125 23.7969ZM99.1562 25.1875V16.5312C99.1562 15.9062 99.4688 15.5938 100.094 15.5938H102.594C103.219 15.5938 103.531 15.9062 103.531 16.5312V24.0625C103.531 26.3333 103.688 27.7656 104 28.3594C104.312 28.9531 104.969 29.25 105.969 29.25C107.031 29.25 107.839 28.8281 108.391 27.9844C108.943 27.1302 109.219 25.3646 109.219 22.6875V16.5312C109.219 15.9062 109.531 15.5938 110.156 15.5938H112.656C113.281 15.5938 113.594 15.9062 113.594 16.5312V31.0625C113.594 31.6875 113.281 32 112.656 32H110.188C109.562 32 109.25 31.6875 109.25 31.0625V30.1562H109.188C108.708 30.9792 108.099 31.5469 107.359 31.8594C106.62 32.1615 105.745 32.3125 104.734 32.3125C103.141 32.3125 101.812 31.8021 100.75 30.7812C99.6875 29.7604 99.1562 27.8958 99.1562 25.1875ZM116.969 27.625C116.969 25.5417 117.964 24.0312 119.953 23.0938C121.943 22.1562 124.214 21.6562 126.766 21.5938V20.9688C126.766 20.0104 126.526 19.3333 126.047 18.9375C125.568 18.5417 124.901 18.3438 124.047 18.3438C123.443 18.3438 122.906 18.4323 122.438 18.6094C121.979 18.776 121.578 18.974 121.234 19.2031C120.901 19.4219 120.599 19.6458 120.328 19.875C119.849 20.2917 119.453 20.3125 119.141 19.9375L117.844 18.3438C117.521 17.9479 117.599 17.5417 118.078 17.125C118.443 16.8021 118.865 16.5208 119.344 16.2812C119.833 16.0417 120.479 15.8177 121.281 15.6094C122.083 15.3906 123.125 15.2812 124.406 15.2812C126.573 15.2812 128.234 15.7812 129.391 16.7812C130.557 17.7812 131.141 19.2552 131.141 21.2031V31.0625C131.141 31.6875 130.828 32 130.203 32H127.641C127.078 32 126.797 31.6875 126.797 31.0625V30.5938H126.766C126.151 31.1875 125.411 31.625 124.547 31.9062C123.693 32.1771 122.906 32.3125 122.188 32.3125C120.479 32.3125 119.182 31.8958 118.297 31.0625C117.411 30.2188 116.969 29.0729 116.969 27.625ZM121.594 27.5312C121.594 27.8958 121.667 28.2135 121.812 28.4844C121.958 28.7448 122.188 28.9375 122.5 29.0625C122.812 29.1875 123.161 29.25 123.547 29.25C124.078 29.25 124.594 29.1771 125.094 29.0312C125.594 28.8854 126.151 28.5417 126.766 28V24.6094C125.016 24.8073 123.844 25.0625 123.25 25.375C122.656 25.6875 122.229 26.0104 121.969 26.3438C121.719 26.6771 121.594 27.0729 121.594 27.5312ZM136.344 32C135.719 32 135.406 31.6875 135.406 31.0625V16.5312C135.406 15.9062 135.719 15.5938 136.344 15.5938H138.812C139.438 15.5938 139.75 15.9062 139.75 16.5312V17.8125H139.812C140.083 17.1458 140.536 16.5573 141.172 16.0469C141.807 15.5365 142.557 15.2812 143.422 15.2812C144.016 15.2812 144.505 15.3542 144.891 15.5C145.255 15.6354 145.396 15.8854 145.312 16.25L144.875 18.1094C144.781 18.526 144.5 18.651 144.031 18.4844C143.76 18.3906 143.5 18.3438 143.25 18.3438C142.25 18.3438 141.422 18.9427 140.766 20.1406C140.109 21.3385 139.781 23.0833 139.781 25.375V31.0625C139.781 31.6875 139.469 32 138.844 32H136.344ZM146.812 23.7969C146.812 21.5052 147.307 19.5156 148.297 17.8281C149.297 16.1302 151.021 15.2812 153.469 15.2812C154.406 15.2812 155.208 15.4167 155.875 15.6875C156.542 15.9583 157.146 16.5417 157.688 17.4375H157.75C157.708 17.0208 157.688 16.6042 157.688 16.1875V9.875C157.688 9.25 158 8.9375 158.625 8.9375H161.125C161.75 8.9375 162.062 9.25 162.062 9.875V31.0625C162.062 31.6875 161.75 32 161.125 32H158.656C158.135 32 157.854 31.6875 157.812 31.0625L157.75 30.1562H157.688C157.146 31.0521 156.542 31.6354 155.875 31.9062C155.208 32.1771 154.406 32.3125 153.469 32.3125C151.021 32.3125 149.297 31.4688 148.297 29.7812C147.307 28.0833 146.812 26.0885 146.812 23.7969ZM151.438 23.7969C151.438 25.4635 151.651 26.7917 152.078 27.7812C152.516 28.7604 153.438 29.25 154.844 29.25C155.625 29.25 156.292 28.8125 156.844 27.9375C157.406 27.0521 157.688 25.9062 157.688 24.5V23.0938C157.688 21.6875 157.406 20.5469 156.844 19.6719C156.292 18.7865 155.625 18.3438 154.844 18.3438C153.438 18.3438 152.516 18.8385 152.078 19.8281C151.651 20.8073 151.438 22.1302 151.438 23.7969ZM178.875 32C178.042 32 177.625 31.6094 177.625 30.8281V10.7656C177.625 9.98438 178.042 9.59375 178.875 9.59375H184.188C188.188 9.59375 190.885 10.0885 192.281 11.0781C193.688 12.0573 194.391 13.5677 194.391 15.6094C194.391 17.0365 193.865 18.1406 192.812 18.9219C191.771 19.7031 190.76 20.1562 189.781 20.2812V20.3281C190.729 20.3906 191.844 20.8698 193.125 21.7656C194.406 22.6615 195.047 23.9271 195.047 25.5625C195.047 27.4792 194.266 29.0312 192.703 30.2188C191.141 31.4062 188.562 32 184.969 32H178.875ZM182.188 28.1875H184.469C186.677 28.1875 188.177 27.9948 188.969 27.6094C189.771 27.224 190.172 26.4427 190.172 25.2656C190.172 24.1615 189.708 23.401 188.781 22.9844C187.865 22.5573 186.427 22.3438 184.469 22.3438H182.188V28.1875ZM182.188 18.6562H184.234C185.578 18.6562 186.833 18.4219 188 17.9531C189.177 17.4844 189.766 16.7552 189.766 15.7656C189.766 14.9948 189.438 14.4115 188.781 14.0156C188.135 13.6094 186.62 13.4062 184.234 13.4062H182.188V18.6562ZM197.938 23.7969C197.938 21.1615 198.594 19.0833 199.906 17.5625C201.229 16.0417 203.094 15.2812 205.5 15.2812C208.292 15.2812 210.365 16 211.719 17.4375C213.073 18.875 213.75 21.1875 213.75 24.375C213.75 25 213.458 25.3125 212.875 25.3125H202.562C202.729 27.0417 203.156 28.1302 203.844 28.5781C204.531 29.026 205.328 29.25 206.234 29.25C207.099 29.25 207.76 29.1354 208.219 28.9062C208.677 28.6771 209.062 28.3646 209.375 27.9688C209.729 27.5104 210.167 27.4375 210.688 27.75L212.25 28.7031C212.865 29.0781 212.953 29.526 212.516 30.0469C211.88 30.8073 211.135 31.375 210.281 31.75C209.427 32.125 208.078 32.3125 206.234 32.3125C203.245 32.3125 201.115 31.5521 199.844 30.0312C198.573 28.5104 197.938 26.4323 197.938 23.7969ZM202.578 22.1875H209.375C209.375 21.0625 209.094 20.1458 208.531 19.4375C207.969 18.7188 207.073 18.3594 205.844 18.3594C204.865 18.3594 204.089 18.7031 203.516 19.3906C202.943 20.0677 202.63 21 202.578 22.1875ZM216.609 18.7188C215.995 18.7188 215.688 18.4583 215.688 17.9375V16.375C215.688 15.8542 215.995 15.5938 216.609 15.5938H217.672V15.0469C217.672 14.5781 217.781 14.151 218 13.7656L219.203 11.6562C219.432 11.2604 219.703 11.0625 220.016 11.0625H221.109C221.734 11.0625 222.047 11.375 222.047 12V15.5938H224.578C225.193 15.5938 225.5 15.8542 225.5 16.375V17.9375C225.5 18.4583 225.193 18.7188 224.578 18.7188H222.047V26.4688C222.047 27.5312 222.12 28.2969 222.266 28.7656C222.422 29.224 222.818 29.4531 223.453 29.4531C223.776 29.4531 224.141 29.401 224.547 29.2969C224.953 29.1823 225.271 29.0729 225.5 28.9688C225.865 28.8021 226.104 28.9219 226.219 29.3281L226.688 31.1094C226.781 31.4635 226.646 31.724 226.281 31.8906C225.938 32.0469 225.464 32.1875 224.859 32.3125C224.266 32.4479 223.667 32.5156 223.062 32.5156C221.573 32.5156 220.302 32.2083 219.25 31.5938C218.198 30.9792 217.672 29.7135 217.672 27.7969V18.7188H216.609Z" fill="black"/>
<rect y="5" width="50.3728" height="33.7605" fill="#2E3092"/>
<path d="M7.88635 5.56445L9.56514 28.8795C25.9969 36.8155 48.3274 -5.66558 41.8726 24.2721C30.0937 34.3164 14.3072 15.9855 7.88635 5.56445Z" stroke="white" stroke-width="5"/>
</svg>
